<mxfile host="app.diagrams.net" modified="2024-02-15T12:01:35.877Z" agent="Mozilla/5.0 (Windows NT 10.0; Win64; x64) AppleWebKit/537.36 (KHTML, like Gecko) Chrome/120.0.0.0 Safari/537.36" etag="IExB6ctNCmVtqyVbiBPH" version="23.1.4" type="github">
  <diagram id="C5RBs43oDa-KdzZeNtuy" name="Page-1">
    <mxGraphModel dx="843" dy="482" grid="1" gridSize="10" guides="1" tooltips="1" connect="1" arrows="1" fold="1" page="1" pageScale="1" pageWidth="827" pageHeight="1169" math="0" shadow="0">
      <root>
        <mxCell id="WIyWlLk6GJQsqaUBKTNV-0" />
        <mxCell id="WIyWlLk6GJQsqaUBKTNV-1" parent="WIyWlLk6GJQsqaUBKTNV-0" />
        <mxCell id="dFmOfbi-uvQbQzdLWZPX-38" value="" style="edgeStyle=none;curved=1;rounded=0;orthogonalLoop=1;jettySize=auto;html=1;fontSize=12;startSize=8;endSize=8;fontFamily=Times New Roman;" parent="WIyWlLk6GJQsqaUBKTNV-1" source="dFmOfbi-uvQbQzdLWZPX-0" target="dFmOfbi-uvQbQzdLWZPX-1" edge="1">
          <mxGeometry relative="1" as="geometry" />
        </mxCell>
        <mxCell id="dFmOfbi-uvQbQzdLWZPX-0" value="部署 ASRT API 服務" style="ellipse;whiteSpace=wrap;html=1;fontFamily=Times New Roman;fontSize=13;" parent="WIyWlLk6GJQsqaUBKTNV-1" vertex="1">
          <mxGeometry x="100" y="365" width="140" height="50" as="geometry" />
        </mxCell>
        <mxCell id="dFmOfbi-uvQbQzdLWZPX-1" value="模型訓練" style="whiteSpace=wrap;html=1;fontFamily=Times New Roman;" parent="WIyWlLk6GJQsqaUBKTNV-1" vertex="1">
          <mxGeometry x="270" y="370" width="120" height="40" as="geometry" />
        </mxCell>
        <mxCell id="dFmOfbi-uvQbQzdLWZPX-4" value="" style="edgeStyle=none;curved=1;rounded=0;orthogonalLoop=1;jettySize=auto;html=1;fontSize=12;startSize=8;endSize=8;fontFamily=Times New Roman;" parent="WIyWlLk6GJQsqaUBKTNV-1" source="dFmOfbi-uvQbQzdLWZPX-3" target="dFmOfbi-uvQbQzdLWZPX-1" edge="1">
          <mxGeometry relative="1" as="geometry" />
        </mxCell>
        <mxCell id="dFmOfbi-uvQbQzdLWZPX-3" value="Github庫提供的&lt;br style=&quot;font-size: 12px;&quot;&gt;Data Sets数据集" style="shape=cylinder3;whiteSpace=wrap;html=1;boundedLbl=1;backgroundOutline=1;size=15;fontSize=12;fontFamily=Times New Roman;" parent="WIyWlLk6GJQsqaUBKTNV-1" vertex="1">
          <mxGeometry x="440" y="345" width="110" height="90" as="geometry" />
        </mxCell>
        <mxCell id="dFmOfbi-uvQbQzdLWZPX-6" value="部署" style="strokeWidth=2;html=1;shape=mxgraph.flowchart.terminator;whiteSpace=wrap;fontFamily=Times New Roman;" parent="WIyWlLk6GJQsqaUBKTNV-1" vertex="1">
          <mxGeometry x="40" y="350" width="50" height="30" as="geometry" />
        </mxCell>
        <mxCell id="dFmOfbi-uvQbQzdLWZPX-18" value="" style="edgeStyle=none;curved=1;rounded=0;orthogonalLoop=1;jettySize=auto;html=1;fontSize=12;startSize=8;endSize=8;fontFamily=Times New Roman;" parent="WIyWlLk6GJQsqaUBKTNV-1" source="dFmOfbi-uvQbQzdLWZPX-7" target="dFmOfbi-uvQbQzdLWZPX-17" edge="1">
          <mxGeometry relative="1" as="geometry" />
        </mxCell>
        <mxCell id="dFmOfbi-uvQbQzdLWZPX-7" value="ASRT 語音識別系統" style="rounded=0;whiteSpace=wrap;html=1;fontFamily=Times New Roman;" parent="WIyWlLk6GJQsqaUBKTNV-1" vertex="1">
          <mxGeometry x="350" y="530" width="120" height="60" as="geometry" />
        </mxCell>
        <mxCell id="dFmOfbi-uvQbQzdLWZPX-12" value="執行" style="strokeWidth=2;html=1;shape=mxgraph.flowchart.terminator;whiteSpace=wrap;fontFamily=Times New Roman;" parent="WIyWlLk6GJQsqaUBKTNV-1" vertex="1">
          <mxGeometry x="270" y="435" width="50" height="30" as="geometry" />
        </mxCell>
        <mxCell id="dFmOfbi-uvQbQzdLWZPX-15" value="" style="edgeStyle=none;curved=1;rounded=0;orthogonalLoop=1;jettySize=auto;html=1;fontSize=12;startSize=8;endSize=8;fontFamily=Times New Roman;" parent="WIyWlLk6GJQsqaUBKTNV-1" source="dFmOfbi-uvQbQzdLWZPX-13" target="dFmOfbi-uvQbQzdLWZPX-14" edge="1">
          <mxGeometry relative="1" as="geometry" />
        </mxCell>
        <mxCell id="dFmOfbi-uvQbQzdLWZPX-13" value="特徵提取" style="shape=cylinder3;whiteSpace=wrap;html=1;boundedLbl=1;backgroundOutline=1;size=15;fontFamily=Times New Roman;" parent="WIyWlLk6GJQsqaUBKTNV-1" vertex="1">
          <mxGeometry x="500" y="530" width="50" height="60" as="geometry" />
        </mxCell>
        <mxCell id="dFmOfbi-uvQbQzdLWZPX-19" value="" style="edgeStyle=none;curved=1;rounded=0;orthogonalLoop=1;jettySize=auto;html=1;fontSize=12;startSize=8;endSize=8;fontFamily=Times New Roman;" parent="WIyWlLk6GJQsqaUBKTNV-1" source="dFmOfbi-uvQbQzdLWZPX-14" target="dFmOfbi-uvQbQzdLWZPX-17" edge="1">
          <mxGeometry relative="1" as="geometry" />
        </mxCell>
        <mxCell id="dFmOfbi-uvQbQzdLWZPX-14" value="語譜圖" style="shape=cylinder3;whiteSpace=wrap;html=1;boundedLbl=1;backgroundOutline=1;size=15;fontFamily=Times New Roman;" parent="WIyWlLk6GJQsqaUBKTNV-1" vertex="1">
          <mxGeometry x="500" y="615" width="50" height="60" as="geometry" />
        </mxCell>
        <mxCell id="dFmOfbi-uvQbQzdLWZPX-44" value="" style="edgeStyle=none;curved=1;rounded=0;orthogonalLoop=1;jettySize=auto;html=1;fontSize=12;startSize=8;endSize=8;fontFamily=Times New Roman;" parent="WIyWlLk6GJQsqaUBKTNV-1" source="dFmOfbi-uvQbQzdLWZPX-17" target="dFmOfbi-uvQbQzdLWZPX-23" edge="1">
          <mxGeometry relative="1" as="geometry" />
        </mxCell>
        <mxCell id="dFmOfbi-uvQbQzdLWZPX-17" value="聲學模型" style="rounded=0;whiteSpace=wrap;html=1;fontFamily=Times New Roman;" parent="WIyWlLk6GJQsqaUBKTNV-1" vertex="1">
          <mxGeometry x="350" y="615" width="120" height="60" as="geometry" />
        </mxCell>
        <mxCell id="dFmOfbi-uvQbQzdLWZPX-22" value="" style="edgeStyle=none;curved=1;rounded=0;orthogonalLoop=1;jettySize=auto;html=1;fontSize=12;startSize=8;endSize=8;fontFamily=Times New Roman;" parent="WIyWlLk6GJQsqaUBKTNV-1" source="dFmOfbi-uvQbQzdLWZPX-20" edge="1">
          <mxGeometry relative="1" as="geometry">
            <mxPoint x="410" y="530" as="targetPoint" />
          </mxGeometry>
        </mxCell>
        <mxCell id="dFmOfbi-uvQbQzdLWZPX-20" value="音頻" style="shape=parallelogram;perimeter=parallelogramPerimeter;whiteSpace=wrap;html=1;fixedSize=1;fontFamily=Times New Roman;" parent="WIyWlLk6GJQsqaUBKTNV-1" vertex="1">
          <mxGeometry x="350" y="450" width="120" height="60" as="geometry" />
        </mxCell>
        <mxCell id="dFmOfbi-uvQbQzdLWZPX-27" value="" style="edgeStyle=none;curved=1;rounded=0;orthogonalLoop=1;jettySize=auto;html=1;fontSize=12;startSize=8;endSize=8;entryX=0.429;entryY=0.879;entryDx=0;entryDy=0;entryPerimeter=0;exitX=0;exitY=0.5;exitDx=0;exitDy=0;fontFamily=Times New Roman;" parent="WIyWlLk6GJQsqaUBKTNV-1" source="dFmOfbi-uvQbQzdLWZPX-23" target="dFmOfbi-uvQbQzdLWZPX-30" edge="1">
          <mxGeometry relative="1" as="geometry">
            <mxPoint x="170" y="620" as="targetPoint" />
            <Array as="points">
              <mxPoint x="80" y="643" />
              <mxPoint x="80" y="640" />
            </Array>
          </mxGeometry>
        </mxCell>
        <mxCell id="dFmOfbi-uvQbQzdLWZPX-23" value="語言模型" style="whiteSpace=wrap;html=1;rounded=0;fontFamily=Times New Roman;" parent="WIyWlLk6GJQsqaUBKTNV-1" vertex="1">
          <mxGeometry x="110" y="610" width="120" height="65" as="geometry" />
        </mxCell>
        <mxCell id="RAXnM76os89z3wH1obeD-2" value="" style="edgeStyle=orthogonalEdgeStyle;rounded=0;orthogonalLoop=1;jettySize=auto;html=1;fontFamily=Times New Roman;" edge="1" parent="WIyWlLk6GJQsqaUBKTNV-1" source="dFmOfbi-uvQbQzdLWZPX-30" target="RAXnM76os89z3wH1obeD-0">
          <mxGeometry relative="1" as="geometry" />
        </mxCell>
        <mxCell id="dFmOfbi-uvQbQzdLWZPX-30" value="拼音標籤序列轉換為文本" style="shape=document;whiteSpace=wrap;html=1;boundedLbl=1;fontSize=12;fontFamily=Times New Roman;" parent="WIyWlLk6GJQsqaUBKTNV-1" vertex="1">
          <mxGeometry x="20" y="520" width="140" height="70" as="geometry" />
        </mxCell>
        <mxCell id="dFmOfbi-uvQbQzdLWZPX-35" value="CTC 解碼&lt;br&gt;合併連續相同符號" style="whiteSpace=wrap;html=1;rounded=0;fontFamily=Times New Roman;" parent="WIyWlLk6GJQsqaUBKTNV-1" vertex="1">
          <mxGeometry x="200" y="520" width="120" height="60" as="geometry" />
        </mxCell>
        <mxCell id="dFmOfbi-uvQbQzdLWZPX-36" value="" style="edgeStyle=none;curved=1;rounded=0;orthogonalLoop=1;jettySize=auto;html=1;fontSize=12;startSize=8;endSize=8;exitX=0;exitY=0.5;exitDx=0;exitDy=0;entryX=0.997;entryY=0.426;entryDx=0;entryDy=0;entryPerimeter=0;fontFamily=Times New Roman;" parent="WIyWlLk6GJQsqaUBKTNV-1" edge="1" target="dFmOfbi-uvQbQzdLWZPX-30" source="dFmOfbi-uvQbQzdLWZPX-35">
          <mxGeometry relative="1" as="geometry">
            <mxPoint x="179.99999999999994" y="528" as="sourcePoint" />
            <mxPoint x="160" y="550" as="targetPoint" />
          </mxGeometry>
        </mxCell>
        <mxCell id="dFmOfbi-uvQbQzdLWZPX-37" value="" style="endArrow=classic;html=1;rounded=0;fontSize=12;startSize=8;endSize=8;exitX=0.5;exitY=1;exitDx=0;exitDy=0;fontFamily=Times New Roman;" parent="WIyWlLk6GJQsqaUBKTNV-1" source="dFmOfbi-uvQbQzdLWZPX-1" edge="1">
          <mxGeometry width="50" height="50" relative="1" as="geometry">
            <mxPoint x="210" y="440" as="sourcePoint" />
            <mxPoint x="360" y="480" as="targetPoint" />
            <Array as="points">
              <mxPoint x="330" y="480" />
            </Array>
          </mxGeometry>
        </mxCell>
        <mxCell id="dFmOfbi-uvQbQzdLWZPX-25" value="&lt;font style=&quot;font-size: 12px;&quot;&gt;使用 DCNN 和 CTC&lt;br&gt;進行聲音轉錄&lt;br&gt;&lt;/font&gt;" style="text;html=1;align=center;verticalAlign=middle;resizable=0;points=[];autosize=1;strokeColor=none;fillColor=none;;fontSize=16;fontFamily=Times New Roman;" parent="WIyWlLk6GJQsqaUBKTNV-1" vertex="1">
          <mxGeometry x="230" y="620" width="130" height="50" as="geometry" />
        </mxCell>
        <mxCell id="RAXnM76os89z3wH1obeD-0" value="&lt;font&gt;傳送至ChatGPT&lt;/font&gt;" style="shape=process;whiteSpace=wrap;html=1;backgroundOutline=1;fontFamily=Times New Roman;" vertex="1" parent="WIyWlLk6GJQsqaUBKTNV-1">
          <mxGeometry x="20" y="435" width="140" height="60" as="geometry" />
        </mxCell>
      </root>
    </mxGraphModel>
  </diagram>
</mxfile>
